<?xml version="1.0" encoding="utf-8"?>
<svg id="master-artboard" viewBox="0 0 1096 780" version="1.1" xmlns="http://www.w3.org/2000/svg" x="0px" y="0px" style="enable-background:new 0 0 1096 780;" width="1096px" height="780px">









<g transform="matrix(2.66056752204895, 0, 0, 2.66056752204895, -935.231689453125, -201.2745971828699)">
	<path class="st2" d="M702.2,221.4c0,76.8-62.2,139-139,139c-76.8,0-139-62.2-139-139c0-76.8,62.2-139,139-139&#10;&#9;&#9;C639.9,82.4,702.2,144.6,702.2,221.4z" style="fill: rgb(255, 255, 255);"/>
</g>
<g transform="matrix(2.862466812133789, 0, 0, 2.862466812133789, -1048.9412841796873, -245.97509767115113)">
	<path class="st1" d="M563.2,340.5c-65.7,0-119.1-53.4-119.1-119.1s53.4-119.1,119.1-119.1c65.7,0,119.1,53.4,119.1,119.1&#10;&#9;&#9;S628.9,340.5,563.2,340.5z M563.2,104.3c-64.6,0-117.1,52.5-117.1,117.1c0,64.6,52.5,117.1,117.1,117.1&#10;&#9;&#9;c64.6,0,117.1-52.5,117.1-117.1C680.3,156.8,627.7,104.3,563.2,104.3z" style="fill: rgb(82, 63, 47);"/>
</g>



<g transform="matrix(2.66056752204895, 0, 0, 2.66056752204895, -935.231689453125, -201.2745971828699)">
	<path d="M 482.899994 176.399994 H 525.899994 V 178.199994 H 482.899994 V 176.399994 Z" class="st1" style="fill: rgb(82, 63, 47);"/>
</g>
<g transform="matrix(2.66056752204895, 0, 0, 2.66056752204895, -935.231689453125, -201.2745971828699)">
	<path d="M 591.599976 176.399994 H 634.599976 V 178.199994 H 591.599976 V 176.399994 Z" class="st1" style="fill: rgb(82, 63, 47);"/>
</g>


















<path d="M 0.8799999952316284 0.6000003814697266 L 16 0.6000003814697266 L 16 1.5200004577636719 L 11.550000190734863 1.5200004577636719 L 11.550000190734863 29.079999923706055 L 13.0600004196167 29.079999923706055 C 15.4399995803833 29.079999923706055 17.336666107177734 28.350000381469727 18.75 26.889999389648438 C 20.163333892822266 25.43666648864746 21.600000381469727 23.196666717529297 23.059999465942383 20.170000076293945 L 23.940000534057617 20.170000076293945 L 23.139999389648438 30 L 0.8799999952316284 30 L 0.8799999952316284 29.079999923706055 L 3.359999895095825 29.079999923706055 L 3.359999895095825 1.5200004577636719 L 0.8799999952316284 1.5200004577636719 L 0.8799999952316284 0.6000003814697266 ZM 41.78999328613281 20.130001068115234 L 43.00999450683594 20.130001068115234 L 43.00999450683594 16.899999618530273 C 43.00999450683594 14.239999771118164 42.86332702636719 12.453332901000977 42.56999206542969 11.540000915527344 C 42.27666091918945 10.633333206176758 41.709991455078125 10.180000305175781 40.8699951171875 10.180000305175781 C 40.36332702636719 10.180000305175781 39.90666198730469 10.309999465942383 39.49999237060547 10.569999694824219 C 39.093326568603516 10.836666107177734 38.889991760253906 11.203332901000977 38.889991760253906 11.670000076293945 C 38.889991760253906 12.129999160766602 38.97332763671875 12.59666633605957 39.139991760253906 13.069999694824219 L 40.18999481201172 13.069999694824219 C 40.41666030883789 13.663333892822266 40.529991149902344 14.369999885559082 40.529991149902344 15.1899995803833 C 40.529991149902344 16.016666412353516 40.17999267578125 16.733333587646484 39.4799919128418 17.34000015258789 C 38.779991149902344 17.939998626708984 37.89665985107422 18.239999771118164 36.829994201660156 18.239999771118164 C 34.4233283996582 18.239999771118164 33.219993591308594 17.07666778564453 33.219993591308594 14.75 C 33.219993591308594 11.309999465942383 36.14665985107422 9.59000015258789 41.99999237060547 9.59000015258789 C 45.33332824707031 9.59000015258789 47.63665771484375 10.156665802001953 48.909996032714844 11.290000915527344 C 50.183326721191406 12.423334121704102 50.81999206542969 14.50333309173584 50.81999206542969 17.529998779296875 L 50.81999206542969 26.049999237060547 C 50.81999206542969 27.510000228881836 51.226661682128906 28.239999771118164 52.03999328613281 28.239999771118164 C 52.993324279785156 28.239999771118164 53.55332946777344 26.796667098999023 53.719993591308594 23.90999984741211 L 54.34999084472656 23.950000762939453 C 54.23666000366211 26.41666603088379 53.7733268737793 28.110000610351562 52.959991455078125 29.030000686645508 C 52.14665985107422 29.956666946411133 50.81665802001953 30.420000076293945 48.969993591308594 30.420000076293945 C 45.60999298095703 30.420000076293945 43.67999267578125 29.383333206176758 43.17999267578125 27.309999465942383 C 42.81332778930664 28.376667022705078 42.266658782958984 29.15999984741211 41.53999328613281 29.65999984741211 C 40.81332778930664 30.16666603088379 39.74999237060547 30.420000076293945 38.34999465942383 30.420000076293945 C 34.20332717895508 30.420000076293945 32.1299934387207 28.726667404174805 32.1299934387207 25.34000015258789 C 32.1299934387207 23.35333251953125 32.91999435424805 21.98666763305664 34.49999237060547 21.239999771118164 C 36.0866584777832 20.5 38.516658782958984 20.130001068115234 41.78999328613281 20.130001068115234 M 40.10999298095703 25.299999237060547 C 40.10999298095703 26.753334045410156 40.18666076660156 27.690000534057617 40.33999252319336 28.110000610351562 C 40.493324279785156 28.530000686645508 40.786659240722656 28.739999771118164 41.219993591308594 28.739999771118164 C 41.65332794189453 28.739999771118164 42.059993743896484 28.383333206176758 42.43999481201172 27.670000076293945 C 42.81999206542969 26.956666946411133 43.00999450683594 25.969999313354492 43.00999450683594 24.709999084472656 L 43.00999450683594 20.799999237060547 L 42.709991455078125 20.799999237060547 C 40.976661682128906 20.799999237060547 40.10999298095703 22.073333740234375 40.10999298095703 24.619998931884766 L 40.10999298095703 25.299999237060547 ZM 74.56248474121094 11.180000305175781 C 73.52249145507812 11.180000305175781 72.61248779296875 11.85333251953125 71.83248901367188 13.200000762939453 C 71.04582214355469 14.546667098999023 70.6524887084961 16.143333435058594 70.6524887084961 17.989999771118164 L 70.6524887084961 29.239999771118164 L 73.63249206542969 29.239999771118164 L 73.63249206542969 30 L 60.53248596191406 30 L 60.53248596191406 29.239999771118164 L 62.84248733520508 29.239999771118164 L 62.84248733520508 10.760000228881836 L 60.53248596191406 10.760000228881836 L 60.53248596191406 10.010000228881836 L 70.6524887084961 10.010000228881836 L 70.6524887084961 14.039999961853027 C 71.01915740966797 12.613332748413086 71.71915435791016 11.513334274291992 72.75248718261719 10.739999771118164 C 73.79248809814453 9.973333358764648 74.96915435791016 9.59000015258789 76.28248596191406 9.59000015258789 C 77.5958251953125 9.59000015258789 78.66581726074219 9.959999084472656 79.49248504638672 10.700000762939453 C 80.31915283203125 11.440000534057617 80.73249053955078 12.489999771118164 80.73249053955078 13.850000381469727 C 80.73249053955078 15.210000038146973 80.42581939697266 16.253334045410156 79.81248474121094 16.979999542236328 C 79.19248962402344 17.706666946411133 78.24581909179688 18.06999969482422 76.97248840332031 18.06999969482422 C 75.69915771484375 18.06999969482422 74.76248931884766 17.649999618530273 74.16249084472656 16.810001373291016 C 73.56248474121094 15.970000267028809 73.48582458496094 14.8100004196167 73.93248748779297 13.329999923706055 L 75.44248962402344 13.329999923706055 C 76.14248657226562 11.89666748046875 75.84915161132812 11.180000305175781 74.56248474121094 11.180000305175781 ZM 102.8349838256836 7.819999694824219 L 104.01498413085938 7.1100006103515625 C 104.18164825439453 6.24333381652832 103.84498596191406 5.809999465942383 103.0049819946289 5.809999465942383 C 101.7983169555664 5.809999465942383 101.19498443603516 6.733333587646484 101.19498443603516 8.579999923706055 C 101.19498443603516 9.30666732788086 101.29498291015625 10.14666748046875 101.49497985839844 11.100000381469727 C 103.62165069580078 12.526666641235352 104.68498229980469 14.353333473205566 104.68498229980469 16.579999923706055 C 104.68498229980469 18.80666732788086 103.91497802734375 20.536666870117188 102.37498474121094 21.770000457763672 C 100.8349838256836 23.003334045410156 98.7483139038086 23.619998931884766 96.11498260498047 23.619998931884766 C 95.02165222167969 23.619998931884766 93.88831329345703 23.50666618347168 92.71498107910156 23.280000686645508 C 91.48165130615234 24.066665649414062 90.86498260498047 24.65333366394043 90.86498260498047 25.040000915527344 C 90.86498260498047 25.433334350585938 91.76165008544922 25.630001068115234 93.55498504638672 25.630001068115234 L 97.8349838256836 25.630001068115234 C 104.19498443603516 25.630001068115234 107.37498474121094 27.913333892822266 107.37498474121094 32.47999954223633 C 107.37498474121094 34.939998626708984 106.41497802734375 36.893333435058594 104.49497985839844 38.34000015258789 C 102.57498168945312 39.779998779296875 99.5849838256836 40.5 95.52497863769531 40.5 C 88.61164855957031 40.5 85.15498352050781 39.003334045410156 85.15498352050781 36.01000213623047 C 85.15498352050781 34.383331298828125 86.23165130615234 33.26333236694336 88.38497924804688 32.650001525878906 L 90.90498352050781 33.779998779296875 C 90.68498229980469 34.59333419799805 90.57498168945312 35.36333465576172 90.57498168945312 36.09000015258789 C 90.57498168945312 38.496665954589844 92.36498260498047 39.70000076293945 95.94498443603516 39.70000076293945 C 98.13164520263672 39.70000076293945 99.8116455078125 39.2933349609375 100.9849853515625 38.47999954223633 C 102.16497802734375 37.67333221435547 102.7549819946289 36.66666793823242 102.7549819946289 35.459999084472656 C 102.7549819946289 34.253334045410156 102.3983154296875 33.45000076293945 101.68498229980469 33.04999923706055 C 100.97164916992188 32.643333435058594 99.5483169555664 32.439998626708984 97.41497802734375 32.439998626708984 L 93.34497833251953 32.439998626708984 C 91.07831573486328 32.439998626708984 89.4549789428711 32.060001373291016 88.47498321533203 31.299999237060547 C 87.49497985839844 30.546667098999023 87.0049819946289 29.616666793823242 87.0049819946289 28.510000228881836 C 87.0049819946289 27.40333366394043 87.35498046875 26.479999542236328 88.05498504638672 25.739999771118164 C 88.7549819946289 24.99333381652832 90.00164794921875 24.07666778564453 91.79498291015625 22.989999771118164 C 88.5416488647461 22.06333351135254 86.91497802734375 19.933334350585938 86.91497802734375 16.600000381469727 C 86.91497802734375 14.5 87.67164611816406 12.80666732788086 89.18498229980469 11.520000457763672 C 90.69831848144531 10.233333587646484 92.96831512451172 9.59000015258789 95.99497985839844 9.59000015258789 C 97.81497955322266 9.59000015258789 99.36831665039062 9.940000534057617 100.65498352050781 10.639999389648438 C 100.48831176757812 9.879999160766602 100.40498352050781 9.19333267211914 100.40498352050781 8.579999923706055 C 100.40498352050781 7.013334274291992 100.82498168945312 5.879999160766602 101.66497802734375 5.180000305175781 C 102.5049819946289 4.479999542236328 103.441650390625 4.129999160766602 104.47498321533203 4.129999160766602 C 105.50831604003906 4.129999160766602 106.34164428710938 4.40333366394043 106.97498321533203 4.950000762939453 C 107.60164642333984 5.496665954589844 107.91497802734375 6.24333381652832 107.91497802734375 7.190000534057617 C 107.91497802734375 8.143333435058594 107.66497802734375 8.850000381469727 107.16497802734375 9.309999465942383 C 106.65831756591797 9.776666641235352 106.0483169555664 10.010000228881836 105.3349838256836 10.010000228881836 C 104.62165069580078 10.010000228881836 104.03498077392578 9.819999694824219 103.57498168945312 9.440000534057617 C 103.10831451416016 9.059999465942383 102.86164855957031 8.520000457763672 102.8349838256836 7.819999694824219 M 93.93498229980469 15.680000305175781 L 93.93498229980469 17.950000762939453 C 93.93498229980469 19.823333740234375 94.09498596191406 21.09666633605957 94.41497802734375 21.770000457763672 C 94.7349853515625 22.44333267211914 95.22498321533203 22.780000686645508 95.88497924804688 22.780000686645508 C 96.54498291015625 22.780000686645508 97.02165222167969 22.450000762939453 97.31497955322266 21.790000915527344 C 97.60831451416016 21.130001068115234 97.7549819946289 19.779998779296875 97.7549819946289 17.739999771118164 L 97.7549819946289 15.680000305175781 C 97.7549819946289 13.49333381652832 97.61498260498047 12.05666732788086 97.3349838256836 11.370000839233398 C 97.05497741699219 10.683332443237305 96.5849838256836 10.34000015258789 95.92498016357422 10.34000015258789 C 95.27165222167969 10.34000015258789 94.77497863769531 10.696666717529297 94.43498229980469 11.40999984741211 C 94.10164642333984 12.129999160766602 93.93498229980469 13.553333282470703 93.93498229980469 15.680000305175781 ZM 122.87498474121094 30.420000076293945 C 119.26165008544922 30.420000076293945 116.55165100097656 29.489999771118164 114.74497985839844 27.630001068115234 C 112.93831634521484 25.76333236694336 112.03498077392578 23.17333221435547 112.03498077392578 19.860000610351562 C 112.03498077392578 16.540000915527344 113.05165100097656 13.996665954589844 115.0849838256836 12.229999542236328 C 117.11164855957031 10.469999313354492 119.691650390625 9.59000015258789 122.82498168945312 9.59000015258789 C 129.1849822998047 9.59000015258789 132.23831176757812 12.780000686645508 131.9849853515625 19.15999984741211 L 120.14498138427734 19.15999984741211 L 120.14498138427734 20.799999237060547 C 120.14498138427734 23.546667098999023 120.49497985839844 25.619998931884766 121.19498443603516 27.020000457763672 C 121.89498138427734 28.420000076293945 123.11164855957031 29.1200008392334 124.84498596191406 29.1200008392334 C 128.09164428710938 29.1200008392334 130.21832275390625 27.383333206176758 131.2249755859375 23.90999984741211 L 131.9849853515625 24.040000915527344 C 131.45164489746094 26.053333282470703 130.4916534423828 27.619998931884766 129.10498046875 28.739999771118164 C 127.71831512451172 29.860000610351562 125.64164733886719 30.420000076293945 122.87498474121094 30.420000076293945 M 120.18498229980469 18.31999969482422 L 124.5049819946289 18.31999969482422 L 124.5049819946289 16.270000457763672 C 124.5049819946289 13.996665954589844 124.37498474121094 12.446666717529297 124.11498260498047 11.620000839233398 C 123.84832000732422 10.799999237060547 123.31498718261719 10.389999389648438 122.51498413085938 10.389999389648438 C 121.71498107910156 10.389999389648438 121.1283187866211 10.829999923706055 120.7549819946289 11.709999084472656 C 120.37498474121094 12.59000015258789 120.18498229980469 14.109999656677246 120.18498229980469 16.270000457763672 L 120.18498229980469 18.31999969482422 ZM 174.65496826171875 0.6000003814697266 L 175.07498168945312 11.139999389648438 L 174.2749786376953 11.139999389648438 C 173.04830932617188 7.420000076293945 171.95831298828125 4.879999160766602 171.00497436523438 3.520000457763672 C 170.0516357421875 2.1599998474121094 168.67831420898438 1.4799995422363281 166.88497924804688 1.4799995422363281 L 166.38497924804688 1.4799995422363281 L 166.38497924804688 29.1200008392334 L 169.95497131347656 29.1200008392334 L 169.95497131347656 30 L 154.62496948242188 30 L 154.62496948242188 29.1200008392334 L 158.19497680664062 29.1200008392334 L 158.19497680664062 1.4799995422363281 L 157.6449737548828 1.4799995422363281 C 155.8516387939453 1.4799995422363281 154.46498107910156 2.186666488647461 153.48497009277344 3.6000003814697266 C 152.50497436523438 5.013334274291992 151.42831420898438 7.526666641235352 150.25497436523438 11.139999389648438 L 149.45497131347656 11.139999389648438 L 149.87496948242188 0.6000003814697266 L 174.65496826171875 0.6000003814697266 ZM 192.1224822998047 30.420000076293945 C 188.5091552734375 30.420000076293945 185.7991485595703 29.489999771118164 183.9924774169922 27.630001068115234 C 182.18582153320312 25.76333236694336 181.28248596191406 23.17333221435547 181.28248596191406 19.860000610351562 C 181.28248596191406 16.540000915527344 182.2991485595703 13.996665954589844 184.3324737548828 12.229999542236328 C 186.35914611816406 10.469999313354492 188.93914794921875 9.59000015258789 192.07247924804688 9.59000015258789 C 198.43247985839844 9.59000015258789 201.48580932617188 12.780000686645508 201.23248291015625 19.15999984741211 L 189.39248657226562 19.15999984741211 L 189.39248657226562 20.799999237060547 C 189.39248657226562 23.546667098999023 189.7424774169922 25.619998931884766 190.44247436523438 27.020000457763672 C 191.14248657226562 28.420000076293945 192.35914611816406 29.1200008392334 194.0924835205078 29.1200008392334 C 197.33914184570312 29.1200008392334 199.4658203125 27.383333206176758 200.47247314453125 23.90999984741211 L 201.23248291015625 24.040000915527344 C 200.6991424560547 26.053333282470703 199.73915100097656 27.619998931884766 198.35247802734375 28.739999771118164 C 196.9658203125 29.860000610351562 194.88914489746094 30.420000076293945 192.1224822998047 30.420000076293945 M 189.43247985839844 18.31999969482422 L 193.7524871826172 18.31999969482422 L 193.7524871826172 16.270000457763672 C 193.7524871826172 13.996665954589844 193.6224822998047 12.446666717529297 193.36248779296875 11.620000839233398 C 193.09580993652344 10.799999237060547 192.56248474121094 10.389999389648438 191.76248168945312 10.389999389648438 C 190.9624786376953 10.389999389648438 190.3758087158203 10.829999923706055 190.0024871826172 11.709999084472656 C 189.6224822998047 12.59000015258789 189.43247985839844 14.109999656677246 189.43247985839844 16.270000457763672 L 189.43247985839844 18.31999969482422 ZM 221.3149871826172 17.610000610351562 L 226.2749786376953 10.760000228881836 L 223.25498962402344 10.760000228881836 L 223.25498962402344 10.010000228881836 L 229.50498962402344 10.010000228881836 L 229.50498962402344 10.760000228881836 L 227.32498168945312 10.760000228881836 L 221.864990234375 18.489999771118164 L 228.71498107910156 29.239999771118164 L 230.89498901367188 29.239999771118164 L 230.89498901367188 30 L 216.864990234375 30 L 216.864990234375 29.239999771118164 L 219.84498596191406 29.239999771118164 L 215.2249755859375 21.68000030517578 L 210.44497680664062 29.239999771118164 L 213.21498107910156 29.239999771118164 L 213.21498107910156 30 L 206.614990234375 30 L 206.614990234375 29.239999771118164 L 209.39498901367188 29.239999771118164 L 214.7249755859375 20.84000015258789 L 208.34498596191406 10.760000228881836 L 205.9049835205078 10.760000228881836 L 205.9049835205078 10.010000228881836 L 220.10498046875 10.010000228881836 L 220.10498046875 10.760000228881836 L 217.16497802734375 10.760000228881836 L 221.3149871826172 17.610000610351562 ZM 239.6624755859375 23.989999771118164 L 239.6624755859375 10.760000228881836 L 237.35247802734375 10.760000228881836 L 237.35247802734375 10.010000228881836 L 239.6624755859375 10.010000228881836 L 239.6624755859375 4.590000152587891 L 247.47247314453125 2.6599998474121094 L 247.47247314453125 10.010000228881836 L 252.93246459960938 10.010000228881836 L 252.93246459960938 10.760000228881836 L 247.47247314453125 10.760000228881836 L 247.47247314453125 24.920000076293945 C 247.47247314453125 26.233333587646484 247.60580444335938 27.200000762939453 247.87246704101562 27.81999969482422 C 248.13914489746094 28.433332443237305 248.69247436523438 28.739999771118164 249.532470703125 28.739999771118164 C 250.37246704101562 28.739999771118164 251.109130859375 28.31999969482422 251.7424774169922 27.479999542236328 C 252.369140625 26.639999389648438 252.77914428710938 25.49333381652832 252.97247314453125 24.040000915527344 L 253.69247436523438 24.119998931884766 C 253.46580505371094 26.053333282470703 252.84913635253906 27.586666107177734 251.84246826171875 28.719999313354492 C 250.83580017089844 29.85333251953125 249.1691436767578 30.420000076293945 246.84246826171875 30.420000076293945 C 244.52247619628906 30.420000076293945 242.7458038330078 29.956666946411133 241.51246643066406 29.030000686645508 C 240.27914428710938 28.110000610351562 239.6624755859375 26.43000030517578 239.6624755859375 23.989999771118164 Z" transform="matrix(0, 0, 0, 0, 548, 390)" style="fill: rgb(51, 51, 51); white-space: pre;"/><path d="M 26.709999084472656 0.39999961853027344 L 27.1299991607666 10.939998626708984 L 26.329999923706055 10.939998626708984 C 25.10333251953125 7.219999313354492 24.013334274291992 4.679998397827148 23.059999465942383 3.3199996948242188 C 22.106666564941406 1.9599990844726562 20.733333587646484 1.279998779296875 18.940000534057617 1.279998779296875 L 18.440000534057617 1.279998779296875 L 18.440000534057617 28.920000076293945 L 22.010000228881836 28.920000076293945 L 22.010000228881836 29.799999237060547 L 6.679999828338623 29.799999237060547 L 6.679999828338623 28.920000076293945 L 10.25 28.920000076293945 L 10.25 1.279998779296875 L 9.699999809265137 1.279998779296875 C 7.9066667556762695 1.279998779296875 6.519999980926514 1.9866657257080078 5.539999961853027 3.3999996185302734 C 4.559999942779541 4.813333511352539 3.4833333492279053 7.326665878295898 2.309999942779541 10.939998626708984 L 1.5099999904632568 10.939998626708984 L 1.9299999475479126 0.39999961853027344 L 26.709999084472656 0.39999961853027344 ZM 29.102542877197266 -1.7000007629394531 L 39.22254180908203 -1.7000007629394531 L 39.22254180908203 13.670000076293945 C 39.66920852661133 12.383333206176758 40.35587692260742 11.34666633605957 41.28254318237305 10.559999465942383 C 42.20920944213867 9.779998779296875 43.60920715332031 9.389999389648438 45.4825439453125 9.389999389648438 C 49.822540283203125 9.389999389648438 51.9925422668457 11.726665496826172 51.9925422668457 16.399999618530273 L 51.9925422668457 29.03999900817871 L 54.34254455566406 29.03999900817871 L 54.34254455566406 29.799999237060547 L 42.46254348754883 29.799999237060547 L 42.46254348754883 29.03999900817871 L 44.18254089355469 29.03999900817871 L 44.18254089355469 15.389999389648438 C 44.18254089355469 13.709999084472656 44.069210052490234 12.626665115356445 43.84254455566406 12.139999389648438 C 43.62254333496094 11.646665573120117 43.215877532958984 11.399999618530273 42.62254333496094 11.399999618530273 C 41.729209899902344 11.399999618530273 40.939208984375 11.989999771118164 40.252540588378906 13.170000076293945 C 39.56587600708008 14.343332290649414 39.22254180908203 15.769999504089355 39.22254180908203 17.44999885559082 L 39.22254180908203 29.03999900817871 L 41.03254318237305 29.03999900817871 L 41.03254318237305 29.799999237060547 L 29.102542877197266 29.799999237060547 L 29.102542877197266 29.03999900817871 L 31.41254234313965 29.03999900817871 L 31.41254234313965 -0.9400005340576172 L 29.102542877197266 -0.9400005340576172 L 29.102542877197266 -1.7000007629394531 ZM 66.02143096923828 30.219999313354492 C 62.40809631347656 30.219999313354492 59.698097229003906 29.28999900817871 57.89142990112305 27.43000030517578 C 56.08476257324219 25.563331604003906 55.18143081665039 22.973331451416016 55.18143081665039 19.65999984741211 C 55.18143081665039 16.34000015258789 56.198097229003906 13.79666519165039 58.23143005371094 12.029998779296875 C 60.258094787597656 10.269998550415039 62.838096618652344 9.389999389648438 65.97142791748047 9.389999389648438 C 72.33142852783203 9.389999389648438 75.384765625 12.579999923706055 75.13143157958984 18.959999084472656 L 63.29142761230469 18.959999084472656 L 63.29142761230469 20.599998474121094 C 63.29142761230469 23.34666633605957 63.64142990112305 25.419998168945312 64.3414306640625 26.81999969482422 C 65.04142761230469 28.219999313354492 66.25809478759766 28.920000076293945 67.9914321899414 28.920000076293945 C 71.23809814453125 28.920000076293945 73.36476135253906 27.183332443237305 74.37142944335938 23.709999084472656 L 75.13143157958984 23.84000015258789 C 74.59809875488281 25.85333251953125 73.63809204101562 27.419998168945312 72.25143432617188 28.53999900817871 C 70.86476135253906 29.65999984741211 68.78809356689453 30.219999313354492 66.02143096923828 30.219999313354492 M 63.33142852783203 18.119998931884766 L 67.65142822265625 18.119998931884766 L 67.65142822265625 16.06999969482422 C 67.65142822265625 13.79666519165039 67.52143096923828 12.246665954589844 67.26142883300781 11.420000076293945 C 66.99476623535156 10.599998474121094 66.46142578125 10.189998626708984 65.66143035888672 10.189998626708984 C 64.8614273071289 10.189998626708984 64.27476501464844 10.629999160766602 63.90142822265625 11.509998321533203 C 63.52143096923828 12.389999389648438 63.33142852783203 13.909998893737793 63.33142852783203 16.06999969482422 L 63.33142852783203 18.119998931884766 ZM 84.40988159179688 0.39999961853027344 L 96.7598876953125 0.39999961853027344 C 100.9865493774414 0.39999961853027344 104.13655090332031 1.0099983215332031 106.20988464355469 2.229999542236328 C 108.28321838378906 3.4433326721191406 109.31988525390625 5.619998931884766 109.31988525390625 8.759998321533203 C 109.31988525390625 12.233331680297852 108.05988311767578 14.626666069030762 105.53988647460938 15.9399995803833 C 103.18655395507812 17.146665573120117 99.89655303955078 17.75 95.66988372802734 17.75 L 95.32988739013672 17.75 L 95.32988739013672 29 L 100.57987976074219 29 L 100.57987976074219 29.799999237060547 L 84.40988159179688 29.799999237060547 L 84.40988159179688 29 L 87.13988494873047 29 L 87.13988494873047 1.1999988555908203 L 84.40988159179688 1.1999988555908203 L 84.40988159179688 0.39999961853027344 M 95.32988739013672 1.1999988555908203 L 95.32988739013672 16.94999885559082 L 96.20988464355469 16.94999885559082 C 97.88988494873047 16.94999885559082 99.05321502685547 16.376667022705078 99.69988250732422 15.229999542236328 C 100.33988189697266 14.076665878295898 100.65988159179688 12.213333129882812 100.65988159179688 9.639999389648438 L 100.65988159179688 7.619998931884766 C 100.65988159179688 5.239999771118164 100.3598861694336 3.5766658782958984 99.7598876953125 2.6299991607666016 C 99.15988159179688 1.676666259765625 98.05988311767578 1.1999988555908203 96.45988464355469 1.1999988555908203 L 95.32988739013672 1.1999988555908203 ZM 116.99465942382812 6.909999847412109 C 116.99465942382812 6.909999847412109 116.62466430664062 6.909999847412109 115.8846664428711 6.909999847412109 C 115.14466094970703 6.909999847412109 114.45799255371094 6.533332824707031 113.82466125488281 5.779998779296875 C 113.197998046875 5.019998550415039 112.8846664428711 4.079999923706055 112.8846664428711 2.9599990844726562 C 112.8846664428711 1.8400001525878906 113.22799682617188 0.9166660308837891 113.91466522216797 0.18999862670898438 C 114.60133361816406 -0.5366668701171875 115.64466094970703 -0.9000015258789062 117.04466247558594 -0.9000015258789062 C 118.44466400146484 -0.9000015258789062 119.50799560546875 -0.573333740234375 120.23466491699219 0.07999992370605469 C 120.9613265991211 0.7399997711181641 121.32466125488281 1.6799983978271484 121.32466125488281 2.8999996185302734 C 121.32466125488281 4.119998931884766 120.97466278076172 5.093332290649414 120.27466583251953 5.819999694824219 C 119.57466125488281 6.546665191650391 118.48133087158203 6.909999847412109 116.99465942382812 6.909999847412109 M 110.6546630859375 9.809999465942383 L 120.94466400146484 9.809999465942383 L 120.94466400146484 29.03999900817871 L 123.29466247558594 29.03999900817871 L 123.29466247558594 29.799999237060547 L 110.82466125488281 29.799999237060547 L 110.82466125488281 29.03999900817871 L 113.1346664428711 29.03999900817871 L 113.1346664428711 10.559999465942383 L 110.6546630859375 10.559999465942383 L 110.6546630859375 9.809999465942383 ZM 140.97705078125 7.619998931884766 L 142.1570587158203 6.909999847412109 C 142.32373046875 6.043333053588867 141.987060546875 5.60999870300293 141.14706420898438 5.60999870300293 C 139.9403839111328 5.60999870300293 139.33705139160156 6.533332824707031 139.33705139160156 8.379999160766602 C 139.33705139160156 9.106666564941406 139.4370574951172 9.946666717529297 139.63705444335938 10.899999618530273 C 141.7637176513672 12.326665878295898 142.82705688476562 14.153332710266113 142.82705688476562 16.3799991607666 C 142.82705688476562 18.606666564941406 142.0570526123047 20.336666107177734 140.51705932617188 21.56999969482422 C 138.97705078125 22.803333282470703 136.89039611816406 23.419998168945312 134.25704956054688 23.419998168945312 C 133.16372680664062 23.419998168945312 132.0303955078125 23.306665420532227 130.8570556640625 23.079999923706055 C 129.62371826171875 23.86666488647461 129.00704956054688 24.453332901000977 129.00704956054688 24.84000015258789 C 129.00704956054688 25.233333587646484 129.90371704101562 25.43000030517578 131.69705200195312 25.43000030517578 L 135.97705078125 25.43000030517578 C 142.33705139160156 25.43000030517578 145.51705932617188 27.713333129882812 145.51705932617188 32.279998779296875 C 145.51705932617188 34.73999786376953 144.5570526123047 36.69333267211914 142.63705444335938 38.13999938964844 C 140.71705627441406 39.57999801635742 137.72705078125 40.29999923706055 133.66705322265625 40.29999923706055 C 126.75372314453125 40.29999923706055 123.29705810546875 38.8033332824707 123.29705810546875 35.80999755859375 C 123.29705810546875 34.18333435058594 124.37372589111328 33.063331604003906 126.52705383300781 32.45000076293945 L 129.04705810546875 33.57999801635742 C 128.82705688476562 34.393333435058594 128.71705627441406 35.163333892822266 128.71705627441406 35.88999938964844 C 128.71705627441406 38.29666519165039 130.50704956054688 39.5 134.08705139160156 39.5 C 136.2737274169922 39.5 137.95372009277344 39.09333038330078 139.12705993652344 38.279998779296875 C 140.3070526123047 37.473331451416016 140.89706420898438 36.46666717529297 140.89706420898438 35.2599983215332 C 140.89706420898438 34.0533332824707 140.54039001464844 33.25 139.82705688476562 32.849998474121094 C 139.1137237548828 32.44333267211914 137.6903839111328 32.23999786376953 135.5570526123047 32.23999786376953 L 131.487060546875 32.23999786376953 C 129.2203826904297 32.23999786376953 127.59705352783203 31.85999870300293 126.61705780029297 31.099998474121094 C 125.63705444335938 30.34666633605957 125.14705657958984 29.41666603088379 125.14705657958984 28.309999465942383 C 125.14705657958984 27.203332901000977 125.49705505371094 26.279998779296875 126.19705963134766 25.53999900817871 C 126.89705657958984 24.793333053588867 128.1437225341797 23.876667022705078 129.9370574951172 22.78999900817871 C 126.68372344970703 21.863332748413086 125.05705261230469 19.733333587646484 125.05705261230469 16.399999618530273 C 125.05705261230469 14.299999237060547 125.813720703125 12.606666564941406 127.32705688476562 11.319999694824219 C 128.84039306640625 10.033332824707031 131.11038208007812 9.389999389648438 134.13705444335938 9.389999389648438 C 135.95706176757812 9.389999389648438 137.51039123535156 9.739999771118164 138.79705810546875 10.439998626708984 C 138.63038635253906 9.679998397827148 138.54705810546875 8.993331909179688 138.54705810546875 8.379999160766602 C 138.54705810546875 6.813333511352539 138.96705627441406 5.679998397827148 139.8070526123047 4.979999542236328 C 140.64706420898438 4.279998779296875 141.58372497558594 3.9299983978271484 142.61705017089844 3.9299983978271484 C 143.650390625 3.9299983978271484 144.4837188720703 4.203332901000977 145.11705017089844 4.75 C 145.7437286376953 5.296665191650391 146.0570526123047 6.043333053588867 146.0570526123047 6.989999771118164 C 146.0570526123047 7.943332672119141 145.8070526123047 8.649999618530273 145.3070526123047 9.10999870300293 C 144.80038452148438 9.576665878295898 144.1903839111328 9.809999465942383 143.47705078125 9.809999465942383 C 142.7637176513672 9.809999465942383 142.17706298828125 9.619998931884766 141.71705627441406 9.239999771118164 C 141.25039672851562 8.85999870300293 141.00372314453125 8.319999694824219 140.97705078125 7.619998931884766 M 132.07705688476562 15.479999542236328 L 132.07705688476562 17.75 C 132.07705688476562 19.623332977294922 132.237060546875 20.896665573120117 132.5570526123047 21.56999969482422 C 132.87705993652344 22.243331909179688 133.36705017089844 22.579999923706055 134.0270538330078 22.579999923706055 C 134.6870574951172 22.579999923706055 135.16372680664062 22.25 135.45706176757812 21.59000015258789 C 135.75039672851562 20.93000030517578 135.89706420898438 19.579998016357422 135.89706420898438 17.53999900817871 L 135.89706420898438 15.479999542236328 C 135.89706420898438 13.293333053588867 135.75704956054688 11.856666564941406 135.47705078125 11.170000076293945 C 135.19705200195312 10.483331680297852 134.72705078125 10.139999389648438 134.0670623779297 10.139999389648438 C 133.41372680664062 10.139999389648438 132.91705322265625 10.496665954589844 132.57705688476562 11.209999084472656 C 132.2437286376953 11.929998397827148 132.07705688476562 13.35333251953125 132.07705688476562 15.479999542236328 ZM 148.9584197998047 9.599998474121094 L 147.73841857910156 -1.5700016021728516 C 148.85841369628906 -2.1300010681152344 149.76841735839844 -2.4099998474121094 150.46841430664062 -2.4099998474121094 C 151.4217529296875 -2.4099998474121094 151.89840698242188 -1.8933334350585938 151.89840698242188 -0.8600006103515625 C 151.89840698242188 -0.2133350372314453 151.77174377441406 0.7099990844726562 151.51841735839844 1.9099998474121094 L 149.83840942382812 9.599998474121094 L 148.9584197998047 9.599998474121094 ZM 153.99954223632812 30.219999313354492 L 153.99954223632812 22.69999885559082 L 154.49954223632812 22.69999885559082 C 155.22621154785156 25.139999389648438 156.20620727539062 26.849998474121094 157.43954467773438 27.829999923706055 C 158.67288208007812 28.809999465942383 160.21287536621094 29.299999237060547 162.05953979492188 29.299999237060547 C 164.91287231445312 29.299999237060547 166.33953857421875 28.389999389648438 166.33953857421875 26.56999969482422 C 166.33953857421875 25.78333282470703 165.9895477294922 25.19333267211914 165.28955078125 24.799999237060547 C 164.202880859375 24.18666648864746 162.80287170410156 23.709999084472656 161.08953857421875 23.369998931884766 C 159.18954467773438 22.869998931884766 157.59620666503906 22.19999885559082 156.30953979492188 21.360000610351562 C 154.76954650878906 20.35333251953125 153.99954223632812 18.75666618347168 153.99954223632812 16.56999969482422 C 153.99954223632812 14.383332252502441 154.66954040527344 12.639999389648438 156.00953674316406 11.34000015258789 C 157.35621643066406 10.039999008178711 159.1495361328125 9.389999389648438 161.38954162597656 9.389999389648438 C 162.76287841796875 9.389999389648438 164.17620849609375 9.709999084472656 165.62954711914062 10.349998474121094 C 166.16287231445312 10.576665878295898 166.56954956054688 10.689998626708984 166.84954833984375 10.689998626708984 C 167.12954711914062 10.689998626708984 167.3662109375 10.593332290649414 167.55953979492188 10.399999618530273 C 167.75953674316406 10.19999885559082 167.99954223632812 9.833332061767578 168.279541015625 9.299999237060547 L 168.7395477294922 9.299999237060547 L 168.7395477294922 15.729999542236328 L 168.2295379638672 15.729999542236328 C 166.80287170410156 12.09000015258789 164.59288024902344 10.269998550415039 161.59954833984375 10.269998550415039 C 160.279541015625 10.269998550415039 159.29954528808594 10.5 158.6595458984375 10.959999084472656 C 158.01287841796875 11.426666259765625 157.68954467773438 12.009998321533203 157.68954467773438 12.709999084472656 C 157.68954467773438 13.129999160766602 157.78953552246094 13.4566650390625 157.9895477294922 13.689998626708984 C 158.18287658691406 13.929999351501465 158.33621215820312 14.10666561126709 158.4495391845703 14.219999313354492 C 158.56288146972656 14.333333015441895 158.7428741455078 14.44999885559082 158.9895477294922 14.569999694824219 C 159.2428741455078 14.69666576385498 159.452880859375 14.796666145324707 159.61953735351562 14.869998931884766 C 159.79287719726562 14.936665534973145 160.05287170410156 15.026665687561035 160.3995361328125 15.139999389648438 C 160.75286865234375 15.253332138061523 161.01287841796875 15.323332786560059 161.17953491210938 15.34999942779541 C 163.0795440673828 15.829998970031738 164.4495391845703 16.243331909179688 165.28955078125 16.59000015258789 C 166.12954711914062 16.94333267211914 166.92953491210938 17.369998931884766 167.68954467773438 17.869998931884766 C 169.2295379638672 18.936664581298828 169.99954223632812 20.653331756591797 169.99954223632812 23.01999855041504 C 169.99954223632812 25.38666534423828 169.29954528808594 27.176666259765625 167.8995361328125 28.389999389648438 C 166.49954223632812 29.60999870300293 164.5795440673828 30.219999313354492 162.13954162597656 30.219999313354492 C 160.4062042236328 30.219999313354492 158.72621154785156 29.81333351135254 157.09954833984375 29 C 156.76620483398438 28.779998779296875 156.50286865234375 28.670000076293945 156.30953979492188 28.670000076293945 C 155.68954467773438 28.670000076293945 155.08621215820312 29.18666648864746 154.49954223632812 30.219999313354492 L 153.99954223632812 30.219999313354492 ZM 179.4444122314453 0.39999961853027344 L 192.25440979003906 0.39999961853027344 L 192.25440979003906 1.1999988555908203 L 189.9444122314453 1.1999988555908203 L 189.9444122314453 14.469999313354492 L 190.28440856933594 14.389999389648438 L 202.12440490722656 1.1999988555908203 L 198.80441284179688 1.1999988555908203 L 198.80441284179688 0.39999961853027344 L 206.15440368652344 0.39999961853027344 L 206.15440368652344 1.1999988555908203 L 203.63441467285156 1.1999988555908203 L 196.41441345214844 9.259998321533203 L 206.49441528320312 29 L 208.764404296875 29 L 208.764404296875 29.799999237060547 L 195.2744140625 29.799999237060547 L 195.2744140625 29 L 197.25440979003906 29 L 190.32440185546875 15.59999942779541 L 189.9444122314453 15.6899995803833 L 189.9444122314453 29 L 192.25440979003906 29 L 192.25440979003906 29.799999237060547 L 179.4444122314453 29.799999237060547 L 179.4444122314453 29 L 181.75440979003906 29 L 181.75440979003906 1.1999988555908203 L 179.4444122314453 1.1999988555908203 L 179.4444122314453 0.39999961853027344 ZM 223.66867065429688 10.979999542236328 C 222.62867736816406 10.979999542236328 221.7186737060547 11.653331756591797 220.9386749267578 13 C 220.15200805664062 14.34666633605957 219.7586669921875 15.94333267211914 219.7586669921875 17.78999900817871 L 219.7586669921875 29.03999900817871 L 222.73867797851562 29.03999900817871 L 222.73867797851562 29.799999237060547 L 209.638671875 29.799999237060547 L 209.638671875 29.03999900817871 L 211.94866943359375 29.03999900817871 L 211.94866943359375 10.559999465942383 L 209.638671875 10.559999465942383 L 209.638671875 9.809999465942383 L 219.7586669921875 9.809999465942383 L 219.7586669921875 13.839999198913574 C 220.12533569335938 12.413331985473633 220.82534790039062 11.313333511352539 221.85867309570312 10.539999008178711 C 222.898681640625 9.773332595825195 224.07534790039062 9.389999389648438 225.388671875 9.389999389648438 C 226.70201110839844 9.389999389648438 227.77200317382812 9.759998321533203 228.5986785888672 10.5 C 229.4253387451172 11.239999771118164 229.8386688232422 12.289999008178711 229.8386688232422 13.649999618530273 C 229.8386688232422 15.00999927520752 229.53201293945312 16.053333282470703 228.91867065429688 16.779998779296875 C 228.29867553710938 17.50666618347168 227.3520050048828 17.869998931884766 226.07867431640625 17.869998931884766 C 224.8053436279297 17.869998931884766 223.86866760253906 17.44999885559082 223.2686767578125 16.610000610351562 C 222.66867065429688 15.769999504089355 222.59201049804688 14.609999656677246 223.03866577148438 13.129999160766602 L 224.54867553710938 13.129999160766602 C 225.24867248535156 11.696666717529297 224.95533752441406 10.979999542236328 223.66867065429688 10.979999542236328 ZM 239.87623596191406 19.93000030517578 L 241.0962371826172 19.93000030517578 L 241.0962371826172 16.69999885559082 C 241.0962371826172 14.039999008178711 240.94956970214844 12.253332138061523 240.65623474121094 11.34000015258789 C 240.36289978027344 10.433332443237305 239.79623413085938 9.979999542236328 238.95623779296875 9.979999542236328 C 238.44956970214844 9.979999542236328 237.99290466308594 10.10999870300293 237.58624267578125 10.369998931884766 C 237.1795654296875 10.636665344238281 236.9762420654297 11.003332138061523 236.9762420654297 11.469999313354492 C 236.9762420654297 11.929998397827148 237.0595703125 12.396665573120117 237.2262420654297 12.869998931884766 L 238.27622985839844 12.869998931884766 C 238.50289916992188 13.463333129882812 238.61624145507812 14.169999122619629 238.61624145507812 14.989998817443848 C 238.61624145507812 15.816665649414062 238.2662353515625 16.53333282470703 237.5662384033203 17.139999389648438 C 236.86624145507812 17.73999786376953 235.98291015625 18.03999900817871 234.91622924804688 18.03999900817871 C 232.5095672607422 18.03999900817871 231.3062286376953 16.876667022705078 231.3062286376953 14.549999237060547 C 231.3062286376953 11.10999870300293 234.23291015625 9.389999389648438 240.08624267578125 9.389999389648438 C 243.41957092285156 9.389999389648438 245.722900390625 9.9566650390625 246.99623107910156 11.09000015258789 C 248.26956176757812 12.223333358764648 248.90623474121094 14.303332328796387 248.90623474121094 17.329998016357422 L 248.90623474121094 25.849998474121094 C 248.90623474121094 27.309999465942383 249.31289672851562 28.03999900817871 250.12623596191406 28.03999900817871 C 251.07957458496094 28.03999900817871 251.6395721435547 26.59666633605957 251.80624389648438 23.709999084472656 L 252.4362335205078 23.75 C 252.32290649414062 26.216665267944336 251.8595733642578 27.90999984741211 251.04623413085938 28.829999923706055 C 250.23291015625 29.75666618347168 248.9029083251953 30.219999313354492 247.05624389648438 30.219999313354492 C 243.69622802734375 30.219999313354492 241.7662353515625 29.183332443237305 241.2662353515625 27.10999870300293 C 240.89956665039062 28.176666259765625 240.3529052734375 28.959999084472656 239.62623596191406 29.459999084472656 C 238.89956665039062 29.966665267944336 237.83624267578125 30.219999313354492 236.4362335205078 30.219999313354492 C 232.28956604003906 30.219999313354492 230.2162322998047 28.52666664123535 230.2162322998047 25.139999389648438 C 230.2162322998047 23.153331756591797 231.00624084472656 21.786666870117188 232.58624267578125 21.03999900817871 C 234.1728973388672 20.299999237060547 236.6029052734375 19.93000030517578 239.87623596191406 19.93000030517578 M 238.19622802734375 25.099998474121094 C 238.19622802734375 26.553333282470703 238.2729034423828 27.489999771118164 238.42623901367188 27.90999984741211 C 238.57957458496094 28.329999923706055 238.87290954589844 28.53999900817871 239.30624389648438 28.53999900817871 C 239.73956298828125 28.53999900817871 240.146240234375 28.183332443237305 240.52622985839844 27.469999313354492 C 240.90623474121094 26.75666618347168 241.0962371826172 25.76999855041504 241.0962371826172 24.509998321533203 L 241.0962371826172 20.599998474121094 L 240.79623413085938 20.599998474121094 C 239.06289672851562 20.599998474121094 238.19622802734375 21.873332977294922 238.19622802734375 24.419998168945312 L 238.19622802734375 25.099998474121094 ZM 277.00146484375 29.799999237060547 L 267.4214782714844 29.799999237060547 L 266.96148681640625 26.729999542236328 C 266.5148010253906 27.849998474121094 265.8514709472656 28.713333129882812 264.9714660644531 29.31999969482422 C 264.0848083496094 29.920000076293945 262.7748107910156 30.219999313354492 261.0414733886719 30.219999313354492 C 256.70147705078125 30.219999313354492 254.53147888183594 27.883333206176758 254.53147888183594 23.209999084472656 L 254.53147888183594 10.559999465942383 L 252.1814727783203 10.559999465942383 L 252.1814727783203 9.809999465942383 L 262.3414611816406 9.809999465942383 L 262.3414611816406 24.209999084472656 C 262.3414611816406 25.889999389648438 262.46148681640625 26.996665954589844 262.70147705078125 27.529998779296875 C 262.94146728515625 28.063331604003906 263.41815185546875 28.329999923706055 264.1314697265625 28.329999923706055 C 264.8448181152344 28.329999923706055 265.4814758300781 27.896665573120117 266.0414733886719 27.029998779296875 C 266.6014709472656 26.163331985473633 266.8814697265625 24.959999084472656 266.8814697265625 23.419998168945312 L 266.8814697265625 10.559999465942383 L 264.95147705078125 10.559999465942383 L 264.95147705078125 9.809999465942383 L 274.69146728515625 9.809999465942383 L 274.69146728515625 29.03999900817871 L 277.00146484375 29.03999900817871 L 277.00146484375 29.799999237060547 ZM 279.9383850097656 23.78999900817871 L 279.9383850097656 10.559999465942383 L 277.6283874511719 10.559999465942383 L 277.6283874511719 9.809999465942383 L 279.9383850097656 9.809999465942383 L 279.9383850097656 4.3899993896484375 L 287.7483825683594 2.4599990844726562 L 287.7483825683594 9.809999465942383 L 293.2084045410156 9.809999465942383 L 293.2084045410156 10.559999465942383 L 287.7483825683594 10.559999465942383 L 287.7483825683594 24.719999313354492 C 287.7483825683594 26.03333282470703 287.8817138671875 27 288.1484069824219 27.619998931884766 C 288.4150695800781 28.23333168029785 288.9683837890625 28.53999900817871 289.80841064453125 28.53999900817871 C 290.6484069824219 28.53999900817871 291.38507080078125 28.119998931884766 292.0184020996094 27.279998779296875 C 292.6450500488281 26.439998626708984 293.0550537109375 25.293333053588867 293.2483825683594 23.84000015258789 L 293.9683837890625 23.919998168945312 C 293.7417297363281 25.85333251953125 293.12506103515625 27.38666534423828 292.118408203125 28.51999855041504 C 291.1117248535156 29.653331756591797 289.445068359375 30.219999313354492 287.118408203125 30.219999313354492 C 284.79840087890625 30.219999313354492 283.021728515625 29.75666618347168 281.78839111328125 28.829999923706055 C 280.5550537109375 27.90999984741211 279.9383850097656 26.229999542236328 279.9383850097656 23.78999900817871 Z" transform="matrix(1.8680851459503174, 0, 0, 1.8680851459503174, 298.4918212890625, 358.42742919921875)" style="fill: rgb(30, 148, 142); white-space: pre; color: rgb(51, 51, 51);"/><g transform="matrix(1.4867743253707886, 0, 0, 1.4867743253707886, 449.2127380371094, -402.1261291652917)"><g transform="matrix(1, 0, 0, 1, -324, 8)">
		<path d="M385.1,415.2c0.6,0.8,0.8,1.7,0.8,2.6c0,0.6-0.1,1.2-0.2,1.7c1.2,0.1,2.4,0.4,3.3,1.4c1,1.1,1.5,2.7,1.5,5.1&#10;&#9;&#9;&#9;c0,0.5,0,1.1-0.1,1.6c0,0.6-0.1,1.3-0.1,1.8c0,0.6,0,1.2,0.1,1.8c0.3-0.3,0.7-0.5,1.1-0.7c1.3-0.6,2.6-0.5,3.5-0.3&#10;&#9;&#9;&#9;c0.2-1.8,0.9-3.1,2-3.9c1.2-0.8,2.6-0.9,3.5-0.8c0.2-1.5,0.7-2.7,1.6-3.5c0.9-0.9,2-1.2,2.7-1.3c0-0.1,0-0.1,0-0.2&#10;&#9;&#9;&#9;c0-1.1,0.2-2.8,1.4-4.1c0.8-0.9,1.9-1.4,3.2-1.6c-4.2-1.7-8.9-2.9-13.9-3.1c-5.1-0.2-9.7,0.7-13.4,1.9&#10;&#9;&#9;&#9;C383.5,413.8,384.5,414.3,385.1,415.2z" style="fill: rgb(30, 148, 142); opacity: 1;"/>
		<path d="M420.8,417.1l-0.1-0.1c-3.6-2.6-7-5.5-8.6-7c-0.2,0.8-0.3,1.6-0.3,2.4c0,1.6,0.3,3,0.3,3l0.2,1.1c0,0-3-0.8-4.6,1&#10;&#9;&#9;&#9;c-1.2,1.4-0.9,3.8-0.9,3.8l0.2,1.1l-1.1,0c0,0-1.4,0-2.5,0.9c-0.7,0.7-1.1,1.8-1.2,3.3l0,1.1l-1.1-0.3c0,0-1.8-0.5-3,0.4&#10;&#9;&#9;&#9;c-0.9,0.6-1.4,1.8-1.4,3.6l-0.1,1.2l-1.2-0.5c0,0-1.7-0.7-3.2,0c-0.5,0.2-1,0.6-1.3,1c1.1,3.3,4.2,6.6,11.8,11.8&#10;&#9;&#9;&#9;c5,3.5,7.7,7.8,7.7,12.4c0,0.3,0,0.6,0,0.9c-0.1,1.5-0.4,2.8-0.8,4.1c3-1.9,5.8-4.3,7.9-7.3c0.1-0.2,0.2-0.3,0.3-0.5&#10;&#9;&#9;&#9;c-4.7-4.3-6.6-10.7-7.2-13.9c3.4,6.5,7.8,9.7,9,10.6c0.1-0.2,0.2-0.4,0.2-0.5c0.9-2.1,1.5-4.1,2-6c0.1-0.2,0.1-0.4,0.2-0.6&#10;&#9;&#9;&#9;c-4.7-3.9-7-9.6-8-12.6c3.1,4.7,6.7,7.5,8.7,8.8c0-0.2,0.1-0.4,0.1-0.6c1-8.2-1-13.3-1-13.3s6.1,10.8,1.7,23.6c0,0,0,0.1,0,0.1&#10;&#9;&#9;&#9;c-0.1,0.2-0.2,0.5-0.3,0.7c1.4-0.8,5-3.1,6.9-7.4c-0.6,3.7-2.7,10.1-9.3,12.2c-0.2,0.3-0.3,0.5-0.5,0.8c-3,4.4-7.2,8.2-11.9,10.8&#10;&#9;&#9;&#9;c15.4-3.2,25.4-13.5,25.5-26.8c0-0.1,0-0.1,0-0.2C433.8,426.4,424,419.4,420.8,417.1z" style="fill: rgb(30, 148, 142); opacity: 1;"/>
		<path d="M408.6,457.5c0-4-2.4-7.8-6.9-10.9c-10.6-7.4-13.1-11.3-13.1-17.1c0-0.6,0-1.2,0.1-1.9c0-0.5,0.1-1.1,0.1-1.5&#10;&#9;&#9;&#9;c0-1.9-0.3-3.2-1-3.9c-0.6-0.6-1.5-0.9-3.2-0.9h-1.3l0.5-1.2c0.3-0.7,0.7-2.6,0-3.8c-0.8-1.3-3.1-1.3-4-1.2c-0.2,0-0.3,0-0.3,0&#10;&#9;&#9;&#9;s0.4-3.8,0.4-5.7c-1.3,0.9-3.6,2.3-6.6,4c-2.5,1.4-5,3.2-6.5,4.3c-3.8,2.9-11.2,11.4-11.2,22.8c0,3.8,0.8,7.9,2.8,12.2&#10;&#9;&#9;&#9;c3.7,7.9,11.6,11.9,17.5,13.8c2.2,0.7,4.4,1.3,6.6,1.7c-5.3-2.5-10.2-6.7-13.6-11.7c-0.2-0.3-0.3-0.5-0.5-0.8&#10;&#9;&#9;&#9;c-6.6-2.1-8.7-8.5-9.3-12.2c1.9,4.3,5.5,6.6,6.9,7.4c-0.1-0.2-0.2-0.5-0.3-0.7c0,0,0-0.1,0-0.1c-4.4-12.8,1.7-23.6,1.7-23.6&#10;&#9;&#9;&#9;s-2.6,6.6-0.4,16.8c0,0.2,0.1,0.4,0.1,0.6c1.9-1.2,5.8-4,9.2-9.1c-1,3-3.3,8.9-8.2,12.8c0.1,0.2,0.1,0.4,0.2,0.6&#10;&#9;&#9;&#9;c0.4,1.1,0.8,2.2,1.3,3.4c0.8,2,2,3.7,3.3,5.3c0.1,0.1,0.3,0.3,0.4,0.4c1.3-1.2,6.7-6.1,9.7-11.5c-0.8,3.2-2.7,9.4-6.9,14.2&#10;&#9;&#9;&#9;c0.1,0.1,0.3,0.3,0.4,0.4c1.9,1.5,4,2.8,6.1,3.9c0.2,0.1,0.4,0.2,0.5,0.3c1.2-1.3,4.5-5.3,6.4-9.9c-0.4,2.7-1.4,7.3-4.1,11&#10;&#9;&#9;&#9;c0.2,0.1,0.4,0.2,0.6,0.2c1.7,0.8,4.3,1.9,7.2,2.5c1.5,0.3,3,0.4,4.6,0.3c1.7-0.1,3.4-0.5,4.9-1.3c3.3-1.8,5.2-4.9,5.5-9.1&#10;&#9;&#9;&#9;C408.6,457.9,408.6,457.7,408.6,457.5z" style="fill: rgb(30, 148, 142); opacity: 1;"/>
	</g></g><path d="M 2.890000104904175 11.079999923706055 C 3.5366666316986084 11.079999923706055 4.003333568572998 10.886666297912598 4.289999961853027 10.5 C 4.583333492279053 10.113332748413086 4.730000019073486 9.666666030883789 4.730000019073486 9.15999984741211 C 4.730000019073486 8.646666526794434 4.636666774749756 8.213333129882812 4.449999809265137 7.859999656677246 C 4.263333320617676 7.5 4.026666641235352 7.2166666984558105 3.740000009536743 7.009999752044678 C 3.4600000381469727 6.796666622161865 3.1533334255218506 6.566666603088379 2.819999933242798 6.319999694824219 C 2.493333339691162 6.066666603088379 2.18666672706604 5.826666355133057 1.899999976158142 5.599999904632568 C 1.6200000047683716 5.366666316986084 1.3866666555404663 5.049999713897705 1.2000000476837158 4.649999618530273 C 1.0133333206176758 4.256666660308838 0.9200000166893005 3.803333282470703 0.9200000166893005 3.2899999618530273 C 0.9200000166893005 2.383333206176758 1.190000057220459 1.6599998474121094 1.7300000190734863 1.119999885559082 C 2.2766666412353516 0.5733327865600586 3.0333333015441895 0.3000001907348633 4 0.3000001907348633 L 5.369999885559082 0.3000001907348633 L 5.369999885559082 1.4200000762939453 L 4.059999942779541 1.4200000762939453 C 3.5199999809265137 1.4200000762939453 3.1066665649414062 1.5966663360595703 2.819999933242798 1.9499998092651367 C 2.5399999618530273 2.303333282470703 2.4000000953674316 2.683333396911621 2.4000000953674316 3.0900001525878906 C 2.4000000953674316 3.49666690826416 2.493333339691162 3.8466663360595703 2.680000066757202 4.1399993896484375 C 2.866666555404663 4.433332920074463 3.0999999046325684 4.676666259765625 3.380000114440918 4.869999885559082 C 3.6666667461395264 5.063333034515381 3.9766666889190674 5.289999961853027 4.309999942779541 5.549999713897705 C 4.643333435058594 5.809999942779541 4.953333377838135 6.073333263397217 5.239999771118164 6.339999675750732 C 5.519999980926514 6.606666564941406 5.753333568572998 6.9666666984558105 5.940000057220459 7.419999599456787 C 6.12666654586792 7.873332977294922 6.21999979019165 8.389999389648438 6.21999979019165 8.969999313354492 C 6.21999979019165 10.036666870117188 5.916666507720947 10.84000015258789 5.309999942779541 11.380000114440918 C 4.703333377838135 11.926666259765625 3.873333215713501 12.199999809265137 2.819999933242798 12.199999809265137 L 1.0399999618530273 12.199999809265137 L 1.0399999618530273 11.079999923706055 L 2.890000104904175 11.079999923706055 ZM 10.499286651611328 12.199999809265137 L 10.499286651611328 0.3000001907348633 L 11.999286651611328 0.3000001907348633 L 11.999286651611328 12.199999809265137 L 10.499286651611328 12.199999809265137 ZM 18.421527862548828 12.199999809265137 L 16.921527862548828 12.199999809265137 L 16.921527862548828 0.3000001907348633 L 19.181528091430664 0.3000001907348633 L 21.461528778076172 7.339999675750732 L 21.581527709960938 7.339999675750732 L 23.911529541015625 0.3000001907348633 L 26.081527709960938 0.3000001907348633 L 26.081527709960938 12.199999809265137 L 24.591527938842773 12.199999809265137 L 24.591527938842773 2.0799999237060547 L 22.311527252197266 9.039999961853027 L 20.701528549194336 9.039999961853027 L 18.421527862548828 2.0699996948242188 L 18.421527862548828 12.199999809265137 ZM 32.50543975830078 1.4200000762939453 L 32.50543975830078 5.839999675750732 L 33.595436096191406 5.839999675750732 C 34.23543930053711 5.839999675750732 34.73543930053711 5.619999885559082 35.095436096191406 5.179999828338623 C 35.45543670654297 4.739999771118164 35.63543701171875 4.166666030883789 35.63543701171875 3.4600000381469727 C 35.63543701171875 2.09999942779541 34.95543670654297 1.4200000762939453 33.595436096191406 1.4200000762939453 L 32.50543975830078 1.4200000762939453 M 37.12543869018555 3.4600000381469727 C 37.12543869018555 4.559999942779541 36.828773498535156 5.419999599456787 36.23543930053711 6.039999961853027 C 35.64210510253906 6.6533331871032715 34.79543685913086 6.960000038146973 33.695438385009766 6.960000038146973 L 32.50543975830078 6.960000038146973 L 32.50543975830078 12.199999809265137 L 31.00543785095215 12.199999809265137 L 31.00543785095215 0.3000001907348633 L 34.015438079833984 0.3000001907348633 C 36.08877182006836 0.3000001907348633 37.12543869018555 1.3533334732055664 37.12543869018555 3.4600000381469727 ZM 41.317962646484375 12.199999809265137 L 41.317962646484375 0.3000001907348633 L 42.817962646484375 0.3000001907348633 L 42.817962646484375 11.079999923706055 L 46.2979621887207 11.079999923706055 L 46.2979621887207 12.199999809265137 L 41.317962646484375 12.199999809265137 ZM 51.79922103881836 12.199999809265137 L 50.30921936035156 12.199999809265137 L 50.30921936035156 7.46999979019165 L 47.90922164916992 0.3000001907348633 L 49.40922164916992 0.3000001907348633 L 51.109222412109375 5.929999828338623 L 52.8392219543457 0.3000001907348633 L 54.3392219543457 0.3000001907348633 L 51.79922103881836 7.46999979019165 L 51.79922103881836 12.199999809265137 ZM 64.73223876953125 11.079999923706055 C 65.37890625 11.079999923706055 65.84557342529297 10.886666297912598 66.13224029541016 10.5 C 66.42557525634766 10.113332748413086 66.5722427368164 9.666666030883789 66.5722427368164 9.15999984741211 C 66.5722427368164 8.646666526794434 66.4789047241211 8.213333129882812 66.292236328125 7.859999656677246 C 66.10557556152344 7.5 65.86890411376953 7.2166666984558105 65.58223724365234 7.009999752044678 C 65.30223846435547 6.796666622161865 64.99557495117188 6.566666603088379 64.66223907470703 6.319999694824219 C 64.3355712890625 6.066666603088379 64.0289077758789 5.826666355133057 63.74224090576172 5.599999904632568 C 63.46223831176758 5.366666316986084 63.228904724121094 5.049999713897705 63.042240142822266 4.649999618530273 C 62.85557174682617 4.256666660308838 62.762237548828125 3.803333282470703 62.762237548828125 3.2899999618530273 C 62.762237548828125 2.383333206176758 63.0322380065918 1.6599998474121094 63.57223892211914 1.119999885559082 C 64.11890411376953 0.5733327865600586 64.87557220458984 0.3000001907348633 65.84223937988281 0.3000001907348633 L 67.21224212646484 0.3000001907348633 L 67.21224212646484 1.4200000762939453 L 65.90223693847656 1.4200000762939453 C 65.36223602294922 1.4200000762939453 64.94890594482422 1.5966663360595703 64.66223907470703 1.9499998092651367 C 64.38224029541016 2.303333282470703 64.24224090576172 2.683333396911621 64.24224090576172 3.0900001525878906 C 64.24224090576172 3.49666690826416 64.3355712890625 3.8466663360595703 64.5222396850586 4.1399993896484375 C 64.70890808105469 4.433332920074463 64.9422378540039 4.676666259765625 65.22223663330078 4.869999885559082 C 65.50890350341797 5.063333034515381 65.81890869140625 5.289999961853027 66.15223693847656 5.549999713897705 C 66.4855728149414 5.809999942779541 66.79557037353516 6.073333263397217 67.08223724365234 6.339999675750732 C 67.36223602294922 6.606666564941406 67.59557342529297 6.9666666984558105 67.78224182128906 7.419999599456787 C 67.96890258789062 7.873332977294922 68.06224060058594 8.389999389648438 68.06224060058594 8.969999313354492 C 68.06224060058594 10.036666870117188 67.75890350341797 10.84000015258789 67.15223693847656 11.380000114440918 C 66.54557037353516 11.926666259765625 65.715576171875 12.199999809265137 64.66223907470703 12.199999809265137 L 62.882240295410156 12.199999809265137 L 62.882240295410156 11.079999923706055 L 64.73223876953125 11.079999923706055 ZM 74.13152313232422 0.3000001907348633 L 76.39152526855469 0.3000001907348633 L 78.97152709960938 12.199999809265137 L 77.58152770996094 12.199999809265137 L 76.74152374267578 8.699999809265137 L 73.65152740478516 8.699999809265137 L 72.89152526855469 12.199999809265137 L 71.44152069091797 12.199999809265137 L 74.13152313232422 0.3000001907348633 M 76.49152374267578 7.539999961853027 L 75.27152252197266 1.4200000762939453 L 75.15152740478516 1.4200000762939453 L 73.9115219116211 7.539999961853027 L 76.49152374267578 7.539999961853027 ZM 83.87925720214844 12.199999809265137 L 83.87925720214844 1.4200000762939453 L 81.49925231933594 1.4200000762939453 L 81.49925231933594 0.3000001907348633 L 87.7592544555664 0.3000001907348633 L 87.7592544555664 1.4200000762939453 L 85.37925720214844 1.4200000762939453 L 85.37925720214844 12.199999809265137 L 83.87925720214844 12.199999809265137 ZM 91.94734954833984 12.199999809265137 L 91.94734954833984 0.3000001907348633 L 93.44734954833984 0.3000001907348633 L 93.44734954833984 12.199999809265137 L 91.94734954833984 12.199999809265137 ZM 100.18959045410156 11.079999923706055 C 100.83625793457031 11.079999923706055 101.30292510986328 10.886666297912598 101.58959197998047 10.5 C 101.88292694091797 10.113332748413086 102.02959442138672 9.666666030883789 102.02959442138672 9.15999984741211 C 102.02959442138672 8.646666526794434 101.9362564086914 8.213333129882812 101.74958801269531 7.859999656677246 C 101.56292724609375 7.5 101.32625579833984 7.2166666984558105 101.03958892822266 7.009999752044678 C 100.75959014892578 6.796666622161865 100.45292663574219 6.566666603088379 100.11959075927734 6.319999694824219 C 99.79292297363281 6.066666603088379 99.48625946044922 5.826666355133057 99.19959259033203 5.599999904632568 C 98.91959381103516 5.366666316986084 98.6862564086914 5.049999713897705 98.49958801269531 4.649999618530273 C 98.31292724609375 4.256666660308838 98.21958923339844 3.803333282470703 98.21958923339844 3.2899999618530273 C 98.21958923339844 2.383333206176758 98.48959350585938 1.6599998474121094 99.02959442138672 1.119999885559082 C 99.57625579833984 0.5733327865600586 100.33292388916016 0.3000001907348633 101.29959106445312 0.3000001907348633 L 102.66959381103516 0.3000001907348633 L 102.66959381103516 1.4200000762939453 L 101.35958862304688 1.4200000762939453 C 100.81958770751953 1.4200000762939453 100.40625762939453 1.5966663360595703 100.11959075927734 1.9499998092651367 C 99.83959197998047 2.303333282470703 99.69959259033203 2.683333396911621 99.69959259033203 3.0900001525878906 C 99.69959259033203 3.49666690826416 99.79292297363281 3.8466663360595703 99.9795913696289 4.1399993896484375 C 100.166259765625 4.433332920074463 100.39958953857422 4.676666259765625 100.6795883178711 4.869999885559082 C 100.96625518798828 5.063333034515381 101.27626037597656 5.289999961853027 101.60958862304688 5.549999713897705 C 101.94292449951172 5.809999942779541 102.25292205810547 6.073333263397217 102.53958892822266 6.339999675750732 C 102.81958770751953 6.606666564941406 103.05292510986328 6.9666666984558105 103.23959350585938 7.419999599456787 C 103.42625427246094 7.873332977294922 103.51959228515625 8.389999389648438 103.51959228515625 8.969999313354492 C 103.51959228515625 10.036666870117188 103.21625518798828 10.84000015258789 102.60958862304688 11.380000114440918 C 102.00292205810547 11.926666259765625 101.17292785644531 12.199999809265137 100.11959075927734 12.199999809265137 L 98.33959197998047 12.199999809265137 L 98.33959197998047 11.079999923706055 L 100.18959045410156 11.079999923706055 ZM 107.79887390136719 12.199999809265137 L 107.79887390136719 0.3000001907348633 L 112.81887817382812 0.3000001907348633 L 112.81887817382812 1.4600000381469727 L 109.29887390136719 1.4600000381469727 L 109.29887390136719 5.539999961853027 L 111.9488754272461 5.539999961853027 L 111.9488754272461 6.689999580383301 L 109.29887390136719 6.689999580383301 L 109.29887390136719 12.199999809265137 L 107.79887390136719 12.199999809265137 ZM 119.5372085571289 12.199999809265137 L 118.04721069335938 12.199999809265137 L 118.04721069335938 7.46999979019165 L 115.64720916748047 0.3000001907348633 L 117.14720916748047 0.3000001907348633 L 118.84721374511719 5.929999828338623 L 120.57720947265625 0.3000001907348633 L 122.07720947265625 0.3000001907348633 L 119.5372085571289 7.46999979019165 L 119.5372085571289 12.199999809265137 ZM 125.65495300292969 12.199999809265137 L 125.65495300292969 0.3000001907348633 L 127.15495300292969 0.3000001907348633 L 127.15495300292969 12.199999809265137 L 125.65495300292969 12.199999809265137 ZM 138.89720153808594 12.199999809265137 L 136.7572021484375 12.199999809265137 L 133.60720825195312 1.3899993896484375 L 133.60720825195312 12.199999809265137 L 132.10720825195312 12.199999809265137 L 132.10720825195312 0.3000001907348633 L 134.60720825195312 0.3000001907348633 L 137.38720703125 10.579999923706055 L 137.38720703125 0.3000001907348633 L 138.89720153808594 0.3000001907348633 L 138.89720153808594 12.199999809265137 ZM 149.60079956054688 12.199999809265137 L 146.59078979492188 12.199999809265137 C 145.55746459960938 12.199999809265137 144.75746154785156 11.9399995803833 144.1907958984375 11.420000076293945 C 143.62413024902344 10.899999618530273 143.34078979492188 10.133333206176758 143.34078979492188 9.119999885559082 L 143.34078979492188 3.359999656677246 C 143.34078979492188 2.359999656677246 143.6474609375 1.5999994277954102 144.2607879638672 1.0799999237060547 C 144.87413024902344 0.5599994659423828 145.70745849609375 0.3000001907348633 146.7607879638672 0.3000001907348633 L 149.2607879638672 0.3000001907348633 L 149.2607879638672 1.4399995803833008 L 146.59078979492188 1.4399995803833008 C 146.07080078125 1.4399995803833008 145.6474609375 1.5900001525878906 145.32080078125 1.8899993896484375 C 145.00079345703125 2.189999580383301 144.84078979492188 2.5900001525878906 144.84078979492188 3.0900001525878906 L 144.84078979492188 9.430000305175781 C 144.84078979492188 9.936666488647461 144.99412536621094 10.34000015258789 145.30079650878906 10.639999389648438 C 145.6074676513672 10.933333396911621 146.01412963867188 11.079999923706055 146.5207977294922 11.079999923706055 L 148.10079956054688 11.079999923706055 L 148.10079956054688 6.399999618530273 L 146.57080078125 6.399999618530273 L 146.57080078125 5.279999732971191 L 149.60079956054688 5.279999732971191 L 149.60079956054688 12.199999809265137 Z" transform="matrix(2.8667874336242676, 0, 0, 2.8667874336242676, 364.0545349121094, 515.9553833007812)" style="fill: rgb(82, 63, 47); white-space: pre; color: rgb(156, 156, 156);"/></svg>